<svg width="447" height="313" viewBox="0 0 447 313" fill="none" xmlns="http://www.w3.org/2000/svg">
<path d="M13.8267 307.798V276.151H100.243V32.0803H97.2188L21.1721 103.177L0 80.2008L79.9354 5.20223H136.538V276.151H216.042V307.798H13.8267Z" fill="white"/>
<path d="M338.923 133.524C359.951 133.524 375.65 128.899 386.02 119.651C396.678 110.114 402.007 97.9751 402.007 83.2355V80.2008C402.007 64.0162 396.822 51.8776 386.452 43.7853C376.37 35.693 363.119 31.6468 346.7 31.6468C330.569 31.6468 317.462 35.2595 307.38 42.4847C297.587 49.4211 289.521 58.6694 283.184 70.2299L255.962 49.4211C259.707 43.3518 264.316 37.4271 269.789 31.6468C275.262 25.5776 281.599 20.2308 288.801 15.6067C296.29 10.9825 304.788 7.22529 314.294 4.33518C324.088 1.44506 335.178 0 347.564 0C360.527 0 372.625 1.73408 383.859 5.20223C395.093 8.38135 404.887 13.2946 413.241 19.9418C421.595 26.3001 428.076 34.2479 432.685 43.7853C437.582 53.3227 440.03 64.1607 440.03 76.2992C440.03 86.1256 438.446 94.9405 435.277 102.744C432.397 110.547 428.22 117.339 422.747 123.119C417.562 128.899 411.368 133.813 404.167 137.859C396.966 141.905 389.332 144.94 381.267 146.963V148.697C389.62 150.431 397.686 153.321 405.463 157.367C413.241 161.124 420.154 166.182 426.203 172.54C432.253 178.609 437.005 186.124 440.462 195.083C444.207 203.753 446.079 213.724 446.079 224.996C446.079 238.001 443.487 249.995 438.302 260.978C433.405 271.671 426.347 280.92 417.13 288.723C408.2 296.237 397.254 302.162 384.291 306.497C371.617 310.832 357.502 313 341.947 313C328.697 313 316.886 311.555 306.516 308.665C296.434 305.775 287.361 301.873 279.295 296.96C271.518 292.047 264.604 286.555 258.555 280.486C252.794 274.417 247.609 268.059 243 261.411L270.221 240.603C274.254 246.672 278.431 252.163 282.752 257.076C287.073 261.989 291.969 266.325 297.443 270.082C303.204 273.55 309.685 276.296 316.886 278.319C324.088 280.342 332.441 281.353 341.947 281.353C363.263 281.353 379.538 276.44 390.773 266.614C402.295 256.787 408.056 242.77 408.056 224.562V221.094C408.056 203.175 402.439 189.303 391.205 179.476C380.259 169.65 363.695 164.737 341.515 164.737H305.652V133.524H338.923Z" fill="white"/>
</svg>
