<svg width="445" height="307" viewBox="0 0 445 307" fill="none" xmlns="http://www.w3.org/2000/svg">
<path d="M204.195 307H2.59569V269.814L103.395 179.011C118.104 165.751 130.218 152.203 139.735 138.366C149.253 124.241 154.011 109.396 154.011 93.8296V88.6409C154.011 70.4803 149.253 56.4995 139.735 46.6986C130.218 36.6094 116.085 31.5648 97.3387 31.5648C78.8804 31.5648 64.604 36.3211 54.5097 45.8338C44.7037 55.0582 37.3492 67.4535 32.4462 83.0197L0 70.9127C2.88411 61.9765 6.77765 53.3286 11.6806 44.969C16.872 36.3211 23.3613 28.6822 31.1484 22.0521C38.9355 15.4221 48.3088 10.0892 59.2684 6.05352C70.5165 2.01784 83.4949 0 98.2039 0C113.201 0 126.468 2.16197 138.005 6.48591C149.829 10.8099 159.635 16.8634 167.423 24.6465C175.498 32.4296 181.555 41.654 185.592 52.3197C189.919 62.9854 192.082 74.6601 192.082 87.3437C192.082 98.8742 190.351 109.684 186.89 119.773C183.718 129.862 179.103 139.519 173.047 148.744C167.278 157.968 160.212 167.048 151.848 175.985C143.773 184.632 134.688 193.28 124.593 201.928L40.2333 275.435H204.195V307Z" fill="white"/>
<path d="M290.123 307L349.401 171.661L408.228 36.3211H275.847V92.5324H243.401V5.18874H445V37.1859L329.059 307H290.123Z" fill="white"/>
</svg>
