<svg width="45" height="43" viewBox="0 0 45 43" fill="none" xmlns="http://www.w3.org/2000/svg">
<path d="M26.8066 21.5C26.8066 23.7728 24.8785 25.6152 22.5 25.6152C20.1215 25.6152 18.1934 23.7728 18.1934 21.5C18.1934 19.2272 20.1215 17.3848 22.5 17.3848C24.8785 17.3848 26.8066 19.2272 26.8066 21.5Z" fill="white"/>
<path d="M32.5721 14.219C32.3651 13.6829 32.0348 13.1977 31.6057 12.7994C31.1889 12.3893 30.6814 12.0737 30.1201 11.8759C29.6649 11.707 28.981 11.5059 27.7213 11.4511C26.3587 11.3917 25.9501 11.3789 22.5004 11.3789C19.0503 11.3789 18.6418 11.3914 17.2795 11.4508C16.0198 11.5059 15.3356 11.707 14.8807 11.8759C14.3194 12.0737 13.8116 12.3893 13.3951 12.7994C12.966 13.1977 12.6357 13.6826 12.4283 14.219C12.2515 14.654 12.0411 15.3078 11.9837 16.5115C11.9216 17.8132 11.9082 18.2036 11.9082 21.5003C11.9082 24.7967 11.9216 25.1871 11.9837 26.4892C12.0411 27.6929 12.2515 28.3464 12.4283 28.7814C12.6357 29.3178 12.9656 29.8027 13.3948 30.2009C13.8116 30.611 14.319 30.9266 14.8803 31.1244C15.3356 31.2937 16.0198 31.4948 17.2795 31.5496C18.6418 31.609 19.05 31.6214 22.5001 31.6214C25.9504 31.6214 26.359 31.609 27.721 31.5496C28.9806 31.4948 29.6649 31.2937 30.1201 31.1244C31.2469 30.7091 32.1375 29.8581 32.5721 28.7814C32.7489 28.3464 32.9594 27.6929 33.0171 26.4892C33.0792 25.1871 33.0922 24.7967 33.0922 21.5003C33.0922 18.2036 33.0792 17.8132 33.0171 16.5115C32.9597 15.3078 32.7493 14.654 32.5721 14.219ZM22.5004 27.8395C18.8361 27.8395 15.8657 25.0014 15.8657 21.5C15.8657 17.9986 18.8361 15.1605 22.5004 15.1605C26.1643 15.1605 29.1348 17.9986 29.1348 21.5C29.1348 25.0014 26.1643 27.8395 22.5004 27.8395ZM29.3971 16.3914C28.5408 16.3914 27.8466 15.7281 27.8466 14.9099C27.8466 14.0917 28.5408 13.4283 29.3971 13.4283C30.2533 13.4283 30.9475 14.0917 30.9475 14.9099C30.9472 15.7281 30.2533 16.3914 29.3971 16.3914Z" fill="white"/>
<path d="M22.5 0C10.0755 0 0 9.62769 0 21.5C0 33.3723 10.0755 43 22.5 43C34.9245 43 45 33.3723 45 21.5C45 9.62769 34.9245 0 22.5 0ZM35.342 26.5899C35.2795 27.9041 35.0608 28.8014 34.7415 29.5868C34.0703 31.2451 32.6984 32.5561 30.9629 33.1974C30.1413 33.5025 29.202 33.7112 27.827 33.7712C26.4492 33.8313 26.0091 33.8457 22.5003 33.8457C18.9912 33.8457 18.5514 33.8313 17.1733 33.7712C15.7983 33.7112 14.859 33.5025 14.0374 33.1974C13.175 32.8874 12.3943 32.4016 11.7488 31.7733C11.0917 31.1569 10.5833 30.4105 10.2588 29.5868C9.93954 28.8017 9.72084 27.9041 9.65836 26.5902C9.59484 25.2734 9.58008 24.8528 9.58008 21.5C9.58008 18.1472 9.59484 17.7266 9.65801 16.4101C9.7205 15.0959 9.93885 14.1986 10.2581 13.4132C10.5826 12.5895 11.0914 11.8431 11.7488 11.2267C12.394 10.5984 13.175 10.1126 14.0371 9.80255C14.859 9.49745 15.798 9.2888 17.1733 9.22877C18.5511 9.16873 18.9912 9.1543 22.5 9.1543C26.0088 9.1543 26.4489 9.16873 27.8267 9.2291C29.202 9.2888 30.141 9.49745 30.9629 9.80222C31.825 10.1122 32.606 10.5984 33.2515 11.2267C33.9086 11.8434 34.4174 12.5895 34.7415 13.4132C35.0611 14.1986 35.2795 15.0959 35.3423 16.4101C35.4052 17.7266 35.4199 18.1472 35.4199 21.5C35.4199 24.8528 35.4052 25.2734 35.342 26.5899Z" fill="white"/>
</svg>
