<svg width="42" height="43" viewBox="0 0 42 43" fill="none" xmlns="http://www.w3.org/2000/svg">
<path d="M21 43C32.6007 43 42 33.377 42 21.5C42 9.62304 32.6007 0 21 0C9.39925 0 0 9.62304 0 21.5C0 33.377 9.39925 43 21 43ZM9.60925 21.0342L29.8568 13.0415C30.7965 12.694 31.6172 13.2762 31.3127 14.7311L31.3145 14.7293L27.867 31.3577C27.6115 32.5367 26.9272 32.8233 25.97 32.2679L20.72 28.3065L18.1877 30.8041C17.9077 31.0908 17.6715 31.3327 17.129 31.3327L17.5018 25.8627L27.2318 16.8632C27.6553 16.4815 27.1372 16.2665 26.579 16.6464L14.5548 24.3971L9.37125 22.7416C8.246 22.3761 8.2215 21.5896 9.60925 21.0342Z" fill="white"/>
</svg>
