<svg width="43" height="44" viewBox="0 0 43 44" fill="none" xmlns="http://www.w3.org/2000/svg">
<path d="M21.5 0C9.62769 0 0 9.85159 0 22C0 34.1484 9.62769 44 21.5 44C33.3723 44 43 34.1484 43 22C43 9.85159 33.3723 0 21.5 0ZM15.2523 33.2578H10.0161V17.1382H15.2523V33.2578ZM12.6344 14.937H12.6003C10.8432 14.937 9.70676 13.6993 9.70676 12.1524C9.70676 10.5706 10.8779 9.36719 12.6692 9.36719C14.4604 9.36719 15.5627 10.5706 15.5968 12.1524C15.5968 13.6993 14.4604 14.937 12.6344 14.937ZM34.1331 33.2578H28.8975V24.6342C28.8975 22.4669 28.1394 20.9889 26.2448 20.9889C24.7984 20.9889 23.9369 21.9859 23.5583 22.9483C23.4198 23.2928 23.386 23.7741 23.386 24.2559V33.2578H18.1501C18.1501 33.2578 18.2187 18.6505 18.1501 17.1382H23.386V19.4205C24.0819 18.3221 25.3269 16.7598 28.1049 16.7598C31.5499 16.7598 34.1331 19.0637 34.1331 24.0148V33.2578Z" fill="white"/>
</svg>
