<svg width="43" height="44" viewBox="0 0 43 44" fill="none" xmlns="http://www.w3.org/2000/svg">
<path d="M21.5 0C9.62772 0 0 9.85162 0 22C0 34.1484 9.62772 44 21.5 44C33.3723 44 43 34.1484 43 22C43 9.85162 33.3723 0 21.5 0ZM32.2861 16.8328V19.8117C30.9134 19.8122 29.5796 19.5369 28.3217 18.9939C27.5129 18.6445 26.7593 18.1943 26.07 17.6502L26.0907 26.8191C26.082 28.8838 25.2837 30.8236 23.839 32.2848C22.6632 33.4742 21.1733 34.2305 19.5584 34.4754C19.179 34.5329 18.7928 34.5623 18.4023 34.5623C16.6737 34.5623 15.0325 33.9893 13.69 32.9321C13.4374 32.7331 13.1958 32.5173 12.9658 32.2848C11.4 30.7013 10.5925 28.5551 10.7285 26.2972C10.8322 24.5786 11.5047 22.9395 12.6257 21.6548C14.1089 19.9548 16.1838 19.0112 18.4023 19.0112C18.7928 19.0112 19.179 19.0412 19.5584 19.0987V20.2V23.2639C19.1987 23.1425 18.8144 23.0757 18.4143 23.0757C16.3875 23.0757 14.7477 24.7678 14.778 26.8434C14.7972 28.1713 15.5061 29.3322 16.5517 29.9721C17.0431 30.2729 17.6084 30.4592 18.2117 30.493C18.6843 30.5196 19.1382 30.4522 19.5584 30.3102C21.0066 29.8207 22.0513 28.4289 22.0513 26.7873L22.0561 20.6473V9.43766H26.0651C26.069 9.84414 26.1093 10.2407 26.1842 10.6251C26.4868 12.1806 27.3437 13.5302 28.5363 14.4502C29.5762 15.2528 30.8711 15.7285 32.2745 15.7285C32.2754 15.7285 32.287 15.7285 32.286 15.7276V16.8328H32.2861Z" fill="white"/>
</svg>
