<svg width="45" height="44" viewBox="0 0 45 44" fill="none" xmlns="http://www.w3.org/2000/svg">
<path d="M45 22C45 9.84844 34.9277 0 22.5 0C10.0723 0 0 9.84844 0 22C0 34.1516 10.0723 44 22.5 44C22.6318 44 22.7637 44 22.8955 43.9914V26.8727H18.0615V21.3641H22.8955V17.3078C22.8955 12.607 25.8311 10.0461 30.1201 10.0461C32.1768 10.0461 33.9434 10.1922 34.4531 10.2609V15.1766H31.5C29.1709 15.1766 28.7139 16.2594 28.7139 17.8492V21.3555H34.2949L33.5654 26.8641H28.7139V43.1492C38.1182 40.5109 45 32.0461 45 22Z" fill="white"/>
</svg>
