<svg width="43" height="43" viewBox="0 0 43 43" fill="none" xmlns="http://www.w3.org/2000/svg">
<path d="M30.174 13.8213H12.8252L21.4996 21.2565L30.174 13.8213Z" fill="white"/>
<path d="M21.4997 23.0356C21.3164 23.0356 21.139 22.97 20.9999 22.8504L11.5176 14.7227V29.1785H31.4819V14.7227L21.9995 22.8504C21.8604 22.97 21.6831 23.0356 21.4997 23.0356Z" fill="white"/>
<path d="M21.5 0C9.62596 0 0 9.62596 0 21.5C0 33.374 9.62596 43 21.5 43C33.374 43 43 33.374 43 21.5C42.9865 9.63158 33.3684 0.0134975 21.5 0ZM33.0179 29.9464C33.0179 30.3705 32.674 30.7143 32.25 30.7143H10.75C10.326 30.7143 9.98214 30.3705 9.98214 29.9464V13.0536C9.98214 12.6295 10.326 12.2857 10.75 12.2857H32.25C32.674 12.2857 33.0179 12.6295 33.0179 13.0536V29.9464Z" fill="white"/>
</svg>
