<svg width="43" height="44" viewBox="0 0 43 44" fill="none" xmlns="http://www.w3.org/2000/svg">
<path d="M18.8223 26.1217L25.8159 22.0001L18.8223 17.8784V26.1217Z" fill="white"/>
<path d="M21.5 0C9.62769 0 0 9.85159 0 22C0 34.1484 9.62769 44 21.5 44C33.3723 44 43 34.1484 43 22C43 9.85159 33.3723 0 21.5 0ZM34.9342 22.0225C34.9342 22.0225 34.9342 26.4842 34.3811 28.6357C34.0711 29.8133 33.1637 30.7418 32.0128 31.0587C29.9102 31.625 21.5 31.625 21.5 31.625C21.5 31.625 13.1117 31.625 10.9872 31.0362C9.83634 30.7193 8.92892 29.7904 8.6189 28.6128C8.06545 26.4842 8.06545 22 8.06545 22C8.06545 22 8.06545 17.5386 8.6189 15.3872C8.92859 14.2096 9.85832 13.2582 10.9872 12.9413C13.0898 12.375 21.5 12.375 21.5 12.375C21.5 12.375 29.9102 12.375 32.0128 12.9638C33.1637 13.2807 34.0711 14.2096 34.3811 15.3872C34.9565 17.5386 34.9342 22.0225 34.9342 22.0225Z" fill="white"/>
</svg>
