<svg width="618" height="482" viewBox="0 0 618 482" fill="none" xmlns="http://www.w3.org/2000/svg">
<path d="M0.16 46.56V38.88L41.44 14.976V22.944L7.36 42.24V43.008L41.44 62.304V70.464L0.16 46.56ZM294.693 148.848V140.784H322.533V148.848H294.693ZM575.785 266.496L609.865 247.2V246.432L575.785 227.136V218.976L617.065 242.88V250.56L575.785 274.464V266.496ZM122.005 352.848V344.784H149.845V352.848H122.005Z" fill="#8031A7"/>
<path d="M138.325 72C134.549 72 131.765 70.944 129.973 68.832C128.245 66.72 127.381 64 127.381 60.672V28.992H110.869V22.464H123.157C124.821 22.464 125.973 22.144 126.613 21.504C127.317 20.8 127.669 19.616 127.669 17.952V4.992H135.061V22.464H157.621V28.992H135.061V65.472H157.621V72H138.325ZM194.352 73.152C190.768 73.152 187.536 72.544 184.656 71.328C181.84 70.112 179.408 68.384 177.359 66.144C175.376 63.84 173.84 61.12 172.752 57.984C171.664 54.784 171.12 51.232 171.12 47.328C171.12 43.36 171.664 39.776 172.752 36.576C173.904 33.376 175.472 30.656 177.456 28.416C179.44 26.112 181.808 24.352 184.56 23.136C187.376 21.92 190.48 21.312 193.872 21.312C197.2 21.312 200.208 21.92 202.896 23.136C205.648 24.352 207.984 26.048 209.904 28.224C211.824 30.336 213.296 32.864 214.32 35.808C215.344 38.752 215.856 41.984 215.856 45.504V49.152H179.184V51.456C179.184 53.632 179.536 55.648 180.24 57.504C180.944 59.36 181.936 60.96 183.216 62.304C184.56 63.648 186.16 64.704 188.016 65.472C189.936 66.176 192.048 66.528 194.352 66.528C197.68 66.528 200.56 65.76 202.992 64.224C205.424 62.688 207.28 60.576 208.56 57.888L214.224 61.728C212.752 65.056 210.288 67.808 206.832 69.984C203.44 72.096 199.28 73.152 194.352 73.152ZM193.872 27.648C191.76 27.648 189.808 28.032 188.016 28.8C186.224 29.568 184.656 30.624 183.312 31.968C182.032 33.312 181.008 34.912 180.24 36.768C179.536 38.56 179.184 40.544 179.184 42.72V43.392H207.6V42.336C207.6 40.16 207.248 38.176 206.544 36.384C205.904 34.592 204.976 33.056 203.76 31.776C202.608 30.432 201.168 29.408 199.44 28.704C197.776 28 195.92 27.648 193.872 27.648ZM251.626 73.152C246.442 73.152 241.962 72.288 238.186 70.56C234.474 68.768 231.306 66.4 228.682 63.456L233.866 58.944C236.234 61.44 238.826 63.36 241.642 64.704C244.458 66.048 247.85 66.72 251.818 66.72C255.658 66.72 258.794 66.048 261.226 64.704C263.722 63.296 264.97 61.12 264.97 58.176C264.97 56.896 264.714 55.84 264.202 55.008C263.754 54.112 263.114 53.408 262.282 52.896C261.45 52.384 260.522 52 259.498 51.744C258.474 51.424 257.386 51.168 256.234 50.976L248.458 49.824C246.73 49.568 244.842 49.216 242.794 48.768C240.81 48.32 238.986 47.616 237.322 46.656C235.658 45.632 234.25 44.288 233.098 42.624C232.01 40.96 231.466 38.784 231.466 36.096C231.466 33.6 231.946 31.456 232.906 29.664C233.93 27.808 235.338 26.272 237.13 25.056C238.922 23.776 241.034 22.848 243.466 22.272C245.898 21.632 248.554 21.312 251.434 21.312C255.914 21.312 259.786 22.016 263.05 23.424C266.378 24.832 269.226 26.784 271.594 29.28L266.602 33.984C266.026 33.28 265.29 32.576 264.394 31.872C263.562 31.104 262.506 30.432 261.226 29.856C260.01 29.216 258.57 28.704 256.906 28.32C255.242 27.936 253.322 27.744 251.146 27.744C247.242 27.744 244.234 28.416 242.122 29.76C240.074 31.104 239.05 33.056 239.05 35.616C239.05 36.896 239.274 37.984 239.722 38.88C240.234 39.712 240.906 40.384 241.738 40.896C242.57 41.408 243.498 41.824 244.522 42.144C245.61 42.4 246.698 42.624 247.786 42.816L255.562 43.968C257.354 44.224 259.242 44.576 261.226 45.024C263.21 45.472 265.034 46.208 266.698 47.232C268.362 48.192 269.738 49.504 270.826 51.168C271.978 52.832 272.554 55.008 272.554 57.696C272.554 62.624 270.634 66.432 266.794 69.12C263.018 71.808 257.962 73.152 251.626 73.152ZM311.013 72C307.237 72 304.453 70.944 302.661 68.832C300.933 66.72 300.069 64 300.069 60.672V28.992H283.557V22.464H295.845C297.509 22.464 298.661 22.144 299.301 21.504C300.005 20.8 300.357 19.616 300.357 17.952V4.992H307.749V22.464H330.309V28.992H307.749V65.472H330.309V72H311.013ZM369.247 11.52C367.007 11.52 365.439 11.072 364.543 10.176C363.647 9.216 363.199 8.032 363.199 6.62399V5.088C363.199 3.68 363.647 2.528 364.543 1.632C365.439 0.671997 367.007 0.191998 369.247 0.191998C371.487 0.191998 373.055 0.671997 373.951 1.632C374.847 2.528 375.295 3.68 375.295 5.088V6.62399C375.295 8.032 374.847 9.216 373.951 10.176C373.055 11.072 371.487 11.52 369.247 11.52ZM347.551 65.472H365.407V28.992H347.551V22.464H373.087V65.472H389.791V72H347.551V65.472ZM404.346 72V22.464H412.026V30.528H412.41C412.922 29.312 413.562 28.16 414.33 27.072C415.098 25.92 416.026 24.928 417.114 24.096C418.266 23.264 419.61 22.592 421.146 22.08C422.682 21.568 424.474 21.312 426.522 21.312C431.706 21.312 435.866 22.976 439.002 26.304C442.138 29.568 443.706 34.208 443.706 40.224V72H436.026V41.568C436.026 37.024 435.034 33.664 433.05 31.488C431.066 29.248 428.154 28.128 424.314 28.128C422.778 28.128 421.274 28.32 419.802 28.704C418.33 29.088 417.018 29.664 415.866 30.432C414.714 31.2 413.786 32.192 413.082 33.408C412.378 34.624 412.026 36.032 412.026 37.632V72H404.346ZM506.356 77.664C506.356 82.656 504.276 86.336 500.116 88.704C495.956 91.136 489.716 92.352 481.396 92.352C473.396 92.352 467.636 91.296 464.116 89.184C460.66 87.072 458.932 84.032 458.932 80.064C458.932 77.376 459.636 75.296 461.044 73.824C462.452 72.352 464.436 71.264 466.996 70.56V69.408C465.588 68.704 464.5 67.808 463.732 66.72C462.964 65.632 462.58 64.256 462.58 62.592C462.58 60.032 463.412 58.112 465.076 56.832C466.804 55.552 468.948 54.592 471.508 53.952V53.568C468.436 52.224 466.036 50.24 464.308 47.616C462.644 44.992 461.812 41.92 461.812 38.4C461.812 35.904 462.26 33.6 463.156 31.488C464.052 29.376 465.332 27.584 466.996 26.112C468.724 24.576 470.772 23.392 473.14 22.56C475.508 21.728 478.132 21.312 481.012 21.312C484.724 21.312 487.988 21.984 490.804 23.328V22.464C490.804 20.544 491.252 18.944 492.148 17.664C493.044 16.384 494.58 15.744 496.756 15.744H505.876V22.464H494.74V25.824C496.532 27.36 497.908 29.184 498.868 31.296C499.828 33.408 500.308 35.776 500.308 38.4C500.308 40.896 499.828 43.2 498.868 45.312C497.972 47.424 496.692 49.248 495.028 50.784C493.364 52.256 491.316 53.408 488.884 54.24C486.516 55.072 483.892 55.488 481.012 55.488C480.18 55.488 479.38 55.456 478.612 55.392C477.844 55.328 477.076 55.232 476.308 55.104C475.54 55.232 474.74 55.456 473.908 55.776C473.076 56.032 472.308 56.416 471.604 56.928C470.9 57.376 470.324 57.92 469.876 58.56C469.428 59.2 469.204 59.936 469.204 60.768C469.204 62.24 469.94 63.232 471.412 63.744C472.884 64.192 474.804 64.416 477.172 64.416H488.116C494.516 64.416 499.156 65.632 502.036 68.064C504.916 70.432 506.356 73.632 506.356 77.664ZM499.156 78.048C499.156 76.064 498.356 74.464 496.756 73.248C495.156 72.096 492.372 71.52 488.404 71.52H471.22C467.892 72.864 466.228 75.104 466.228 78.24C466.228 80.416 467.092 82.272 468.82 83.808C470.548 85.408 473.428 86.208 477.46 86.208H484.948C489.428 86.208 492.916 85.504 495.412 84.096C497.908 82.752 499.156 80.736 499.156 78.048ZM481.012 49.536C484.852 49.536 487.668 48.64 489.46 46.848C491.316 45.056 492.244 42.688 492.244 39.744V36.96C492.244 34.016 491.316 31.68 489.46 29.952C487.668 28.16 484.852 27.264 481.012 27.264C477.172 27.264 474.356 28.16 472.564 29.952C470.772 31.68 469.876 34.016 469.876 36.96V39.744C469.876 42.688 470.772 45.056 472.564 46.848C474.356 48.64 477.172 49.536 481.012 49.536ZM137.653 175.152C134.069 175.152 130.869 174.544 128.053 173.328C125.301 172.048 122.965 170.288 121.045 168.048C119.125 165.808 117.653 163.088 116.629 159.888C115.669 156.688 115.189 153.136 115.189 149.232C115.189 145.328 115.701 141.776 116.725 138.576C117.749 135.376 119.221 132.656 121.141 130.416C123.061 128.112 125.397 126.352 128.149 125.136C130.901 123.92 134.037 123.312 137.557 123.312C142.357 123.312 146.261 124.368 149.269 126.48C152.277 128.592 154.485 131.344 155.893 134.736L149.749 138C148.853 135.44 147.349 133.456 145.237 132.048C143.189 130.64 140.629 129.936 137.557 129.936C135.317 129.936 133.301 130.32 131.509 131.088C129.781 131.792 128.309 132.816 127.093 134.16C125.877 135.504 124.949 137.104 124.309 138.96C123.733 140.816 123.445 142.832 123.445 145.008V153.456C123.445 155.632 123.733 157.648 124.309 159.504C124.949 161.36 125.877 162.96 127.093 164.304C128.309 165.648 129.813 166.704 131.605 167.472C133.397 168.176 135.445 168.528 137.749 168.528C141.077 168.528 143.829 167.76 146.005 166.224C148.181 164.688 149.909 162.576 151.189 159.888L156.661 163.632C155.189 166.96 152.885 169.712 149.749 171.888C146.677 174.064 142.645 175.152 137.653 175.152ZM193.488 175.152C190.032 175.152 186.896 174.544 184.08 173.328C181.328 172.112 178.96 170.384 176.976 168.144C175.056 165.84 173.584 163.12 172.56 159.984C171.536 156.784 171.023 153.2 171.023 149.232C171.023 145.328 171.536 141.776 172.56 138.576C173.584 135.376 175.056 132.656 176.976 130.416C178.96 128.112 181.328 126.352 184.08 125.136C186.896 123.92 190.032 123.312 193.488 123.312C196.944 123.312 200.048 123.92 202.8 125.136C205.616 126.352 207.984 128.112 209.904 130.416C211.888 132.656 213.392 135.376 214.416 138.576C215.44 141.776 215.952 145.328 215.952 149.232C215.952 153.2 215.44 156.784 214.416 159.984C213.392 163.12 211.888 165.84 209.904 168.144C207.984 170.384 205.616 172.112 202.8 173.328C200.048 174.544 196.944 175.152 193.488 175.152ZM193.488 168.528C197.776 168.528 201.232 167.248 203.856 164.688C206.48 162.128 207.792 158.16 207.792 152.784V145.68C207.792 140.304 206.48 136.336 203.856 133.776C201.232 131.216 197.776 129.936 193.488 129.936C189.2 129.936 185.744 131.216 183.12 133.776C180.496 136.336 179.184 140.304 179.184 145.68V152.784C179.184 158.16 180.496 162.128 183.12 164.688C185.744 167.248 189.2 168.528 193.488 168.528ZM231.658 174V124.464H239.338V132.528H239.722C240.234 131.312 240.874 130.16 241.642 129.072C242.41 127.92 243.338 126.928 244.426 126.096C245.578 125.264 246.922 124.592 248.458 124.08C249.994 123.568 251.786 123.312 253.834 123.312C259.018 123.312 263.178 124.976 266.314 128.304C269.45 131.568 271.018 136.208 271.018 142.224V174H263.338V143.568C263.338 139.024 262.346 135.664 260.362 133.488C258.378 131.248 255.466 130.128 251.626 130.128C250.09 130.128 248.586 130.32 247.114 130.704C245.642 131.088 244.33 131.664 243.178 132.432C242.026 133.2 241.098 134.192 240.394 135.408C239.69 136.624 239.338 138.032 239.338 139.632V174H231.658ZM138.325 276C134.549 276 131.765 274.944 129.973 272.832C128.245 270.72 127.381 268 127.381 264.672V232.992H110.869V226.464H123.157C124.821 226.464 125.973 226.144 126.613 225.504C127.317 224.8 127.669 223.616 127.669 221.952V208.992H135.061V226.464H157.621V232.992H135.061V269.472H157.621V276H138.325ZM194.352 277.152C190.768 277.152 187.536 276.544 184.656 275.328C181.84 274.112 179.408 272.384 177.359 270.144C175.376 267.84 173.84 265.12 172.752 261.984C171.664 258.784 171.12 255.232 171.12 251.328C171.12 247.36 171.664 243.776 172.752 240.576C173.904 237.376 175.472 234.656 177.456 232.416C179.44 230.112 181.808 228.352 184.56 227.136C187.376 225.92 190.48 225.312 193.872 225.312C197.2 225.312 200.208 225.92 202.896 227.136C205.648 228.352 207.984 230.048 209.904 232.224C211.824 234.336 213.296 236.864 214.32 239.808C215.344 242.752 215.856 245.984 215.856 249.504V253.152H179.184V255.456C179.184 257.632 179.536 259.648 180.24 261.504C180.944 263.36 181.936 264.96 183.216 266.304C184.56 267.648 186.16 268.704 188.016 269.472C189.936 270.176 192.048 270.528 194.352 270.528C197.68 270.528 200.56 269.76 202.992 268.224C205.424 266.688 207.28 264.576 208.56 261.888L214.224 265.728C212.752 269.056 210.288 271.808 206.832 273.984C203.44 276.096 199.28 277.152 194.352 277.152ZM193.872 231.648C191.76 231.648 189.808 232.032 188.016 232.8C186.224 233.568 184.656 234.624 183.312 235.968C182.032 237.312 181.008 238.912 180.24 240.768C179.536 242.56 179.184 244.544 179.184 246.72V247.392H207.6V246.336C207.6 244.16 207.248 242.176 206.544 240.384C205.904 238.592 204.976 237.056 203.76 235.776C202.608 234.432 201.168 233.408 199.44 232.704C197.776 232 195.92 231.648 193.872 231.648ZM251.626 277.152C246.442 277.152 241.962 276.288 238.186 274.56C234.474 272.768 231.306 270.4 228.682 267.456L233.866 262.944C236.234 265.44 238.826 267.36 241.642 268.704C244.458 270.048 247.85 270.72 251.818 270.72C255.658 270.72 258.794 270.048 261.226 268.704C263.722 267.296 264.97 265.12 264.97 262.176C264.97 260.896 264.714 259.84 264.202 259.008C263.754 258.112 263.114 257.408 262.282 256.896C261.45 256.384 260.522 256 259.498 255.744C258.474 255.424 257.386 255.168 256.234 254.976L248.458 253.824C246.73 253.568 244.842 253.216 242.794 252.768C240.81 252.32 238.986 251.616 237.322 250.656C235.658 249.632 234.25 248.288 233.098 246.624C232.01 244.96 231.466 242.784 231.466 240.096C231.466 237.6 231.946 235.456 232.906 233.664C233.93 231.808 235.338 230.272 237.13 229.056C238.922 227.776 241.034 226.848 243.466 226.272C245.898 225.632 248.554 225.312 251.434 225.312C255.914 225.312 259.786 226.016 263.05 227.424C266.378 228.832 269.226 230.784 271.594 233.28L266.602 237.984C266.026 237.28 265.29 236.576 264.394 235.872C263.562 235.104 262.506 234.432 261.226 233.856C260.01 233.216 258.57 232.704 256.906 232.32C255.242 231.936 253.322 231.744 251.146 231.744C247.242 231.744 244.234 232.416 242.122 233.76C240.074 235.104 239.05 237.056 239.05 239.616C239.05 240.896 239.274 241.984 239.722 242.88C240.234 243.712 240.906 244.384 241.738 244.896C242.57 245.408 243.498 245.824 244.522 246.144C245.61 246.4 246.698 246.624 247.786 246.816L255.562 247.968C257.354 248.224 259.242 248.576 261.226 249.024C263.21 249.472 265.034 250.208 266.698 251.232C268.362 252.192 269.738 253.504 270.826 255.168C271.978 256.832 272.554 259.008 272.554 261.696C272.554 266.624 270.634 270.432 266.794 273.12C263.018 275.808 257.962 277.152 251.626 277.152ZM311.013 276C307.237 276 304.453 274.944 302.661 272.832C300.933 270.72 300.069 268 300.069 264.672V232.992H283.557V226.464H295.845C297.509 226.464 298.661 226.144 299.301 225.504C300.005 224.8 300.357 223.616 300.357 221.952V208.992H307.749V226.464H330.309V232.992H307.749V269.472H330.309V276H311.013ZM369.247 215.52C367.007 215.52 365.439 215.072 364.543 214.176C363.647 213.216 363.199 212.032 363.199 210.624V209.088C363.199 207.68 363.647 206.528 364.543 205.632C365.439 204.672 367.007 204.192 369.247 204.192C371.487 204.192 373.055 204.672 373.951 205.632C374.847 206.528 375.295 207.68 375.295 209.088V210.624C375.295 212.032 374.847 213.216 373.951 214.176C373.055 215.072 371.487 215.52 369.247 215.52ZM347.551 269.472H365.407V232.992H347.551V226.464H373.087V269.472H389.791V276H347.551V269.472ZM404.346 276V226.464H412.026V234.528H412.41C412.922 233.312 413.562 232.16 414.33 231.072C415.098 229.92 416.026 228.928 417.114 228.096C418.266 227.264 419.61 226.592 421.146 226.08C422.682 225.568 424.474 225.312 426.522 225.312C431.706 225.312 435.866 226.976 439.002 230.304C442.138 233.568 443.706 238.208 443.706 244.224V276H436.026V245.568C436.026 241.024 435.034 237.664 433.05 235.488C431.066 233.248 428.154 232.128 424.314 232.128C422.778 232.128 421.274 232.32 419.802 232.704C418.33 233.088 417.018 233.664 415.866 234.432C414.714 235.2 413.786 236.192 413.082 237.408C412.378 238.624 412.026 240.032 412.026 241.632V276H404.346ZM506.356 281.664C506.356 286.656 504.276 290.336 500.116 292.704C495.956 295.136 489.716 296.352 481.396 296.352C473.396 296.352 467.636 295.296 464.116 293.184C460.66 291.072 458.932 288.032 458.932 284.064C458.932 281.376 459.636 279.296 461.044 277.824C462.452 276.352 464.436 275.264 466.996 274.56V273.408C465.588 272.704 464.5 271.808 463.732 270.72C462.964 269.632 462.58 268.256 462.58 266.592C462.58 264.032 463.412 262.112 465.076 260.832C466.804 259.552 468.948 258.592 471.508 257.952V257.568C468.436 256.224 466.036 254.24 464.308 251.616C462.644 248.992 461.812 245.92 461.812 242.4C461.812 239.904 462.26 237.6 463.156 235.488C464.052 233.376 465.332 231.584 466.996 230.112C468.724 228.576 470.772 227.392 473.14 226.56C475.508 225.728 478.132 225.312 481.012 225.312C484.724 225.312 487.988 225.984 490.804 227.328V226.464C490.804 224.544 491.252 222.944 492.148 221.664C493.044 220.384 494.58 219.744 496.756 219.744H505.876V226.464H494.74V229.824C496.532 231.36 497.908 233.184 498.868 235.296C499.828 237.408 500.308 239.776 500.308 242.4C500.308 244.896 499.828 247.2 498.868 249.312C497.972 251.424 496.692 253.248 495.028 254.784C493.364 256.256 491.316 257.408 488.884 258.24C486.516 259.072 483.892 259.488 481.012 259.488C480.18 259.488 479.38 259.456 478.612 259.392C477.844 259.328 477.076 259.232 476.308 259.104C475.54 259.232 474.74 259.456 473.908 259.776C473.076 260.032 472.308 260.416 471.604 260.928C470.9 261.376 470.324 261.92 469.876 262.56C469.428 263.2 469.204 263.936 469.204 264.768C469.204 266.24 469.94 267.232 471.412 267.744C472.884 268.192 474.804 268.416 477.172 268.416H488.116C494.516 268.416 499.156 269.632 502.036 272.064C504.916 274.432 506.356 277.632 506.356 281.664ZM499.156 282.048C499.156 280.064 498.356 278.464 496.756 277.248C495.156 276.096 492.372 275.52 488.404 275.52H471.22C467.892 276.864 466.228 279.104 466.228 282.24C466.228 284.416 467.092 286.272 468.82 287.808C470.548 289.408 473.428 290.208 477.46 290.208H484.948C489.428 290.208 492.916 289.504 495.412 288.096C497.908 286.752 499.156 284.736 499.156 282.048ZM481.012 253.536C484.852 253.536 487.668 252.64 489.46 250.848C491.316 249.056 492.244 246.688 492.244 243.744V240.96C492.244 238.016 491.316 235.68 489.46 233.952C487.668 232.16 484.852 231.264 481.012 231.264C477.172 231.264 474.356 232.16 472.564 233.952C470.772 235.68 469.876 238.016 469.876 240.96V243.744C469.876 246.688 470.772 249.056 472.564 250.848C474.356 252.64 477.172 253.536 481.012 253.536ZM158.677 480H113.941V471.744L136.309 451.584C139.573 448.64 142.261 445.632 144.373 442.56C146.485 439.424 147.541 436.128 147.541 432.672V431.52C147.541 427.488 146.485 424.384 144.373 422.208C142.261 419.968 139.125 418.848 134.965 418.848C130.869 418.848 127.701 419.904 125.461 422.016C123.285 424.064 121.653 426.816 120.565 430.272L113.365 427.584C114.005 425.6 114.869 423.68 115.957 421.824C117.109 419.904 118.549 418.208 120.277 416.736C122.005 415.264 124.085 414.08 126.517 413.184C129.013 412.288 131.893 411.84 135.157 411.84C138.485 411.84 141.429 412.32 143.989 413.28C146.613 414.24 148.789 415.584 150.517 417.312C152.309 419.04 153.653 421.088 154.549 423.456C155.509 425.824 155.989 428.416 155.989 431.232C155.989 433.792 155.605 436.192 154.837 438.432C154.133 440.672 153.109 442.816 151.765 444.864C150.485 446.912 148.917 448.928 147.061 450.912C145.269 452.832 143.253 454.752 141.013 456.672L122.293 472.992H158.677V480ZM193.488 481.152C189.392 481.152 185.872 480.384 182.928 478.848C179.984 477.248 177.552 474.976 175.632 472.032C173.712 469.088 172.304 465.472 171.408 461.184C170.512 456.896 170.064 452 170.064 446.496C170.064 441.056 170.512 436.192 171.408 431.904C172.304 427.552 173.712 423.904 175.632 420.96C177.552 418.016 179.984 415.776 182.928 414.24C185.872 412.64 189.392 411.84 193.488 411.84C197.584 411.84 201.104 412.64 204.048 414.24C206.992 415.776 209.424 418.016 211.344 420.96C213.264 423.904 214.672 427.552 215.568 431.904C216.464 436.192 216.912 441.056 216.912 446.496C216.912 452 216.464 456.896 215.568 461.184C214.672 465.472 213.264 469.088 211.344 472.032C209.424 474.976 206.992 477.248 204.048 478.848C201.104 480.384 197.584 481.152 193.488 481.152ZM193.488 474.144C196.176 474.144 198.48 473.632 200.4 472.608C202.32 471.52 203.856 470.016 205.008 468.096C206.224 466.176 207.12 463.872 207.696 461.184C208.272 458.432 208.56 455.36 208.56 451.968V441.024C208.56 437.696 208.272 434.656 207.696 431.904C207.12 429.152 206.224 426.816 205.008 424.896C203.856 422.976 202.32 421.504 200.4 420.48C198.48 419.392 196.176 418.848 193.488 418.848C190.8 418.848 188.496 419.392 186.576 420.48C184.656 421.504 183.088 422.976 181.872 424.896C180.72 426.816 179.856 429.152 179.28 431.904C178.704 434.656 178.416 437.696 178.416 441.024V451.968C178.416 455.36 178.704 458.432 179.28 461.184C179.856 463.872 180.72 466.176 181.872 468.096C183.088 470.016 184.656 471.52 186.576 472.608C188.496 473.632 190.8 474.144 193.488 474.144ZM193.488 452.16C191.248 452.16 189.68 451.712 188.784 450.816C187.952 449.92 187.536 448.832 187.536 447.552V445.44C187.536 444.16 187.952 443.072 188.784 442.176C189.68 441.28 191.248 440.832 193.488 440.832C195.728 440.832 197.264 441.28 198.096 442.176C198.992 443.072 199.44 444.16 199.44 445.44V447.552C199.44 448.832 198.992 449.92 198.096 450.816C197.264 451.712 195.728 452.16 193.488 452.16ZM273.802 480H229.066V471.744L251.434 451.584C254.698 448.64 257.386 445.632 259.498 442.56C261.61 439.424 262.666 436.128 262.666 432.672V431.52C262.666 427.488 261.61 424.384 259.498 422.208C257.386 419.968 254.25 418.848 250.09 418.848C245.994 418.848 242.826 419.904 240.586 422.016C238.41 424.064 236.778 426.816 235.69 430.272L228.49 427.584C229.13 425.6 229.994 423.68 231.082 421.824C232.234 419.904 233.674 418.208 235.402 416.736C237.13 415.264 239.21 414.08 241.642 413.184C244.138 412.288 247.018 411.84 250.282 411.84C253.61 411.84 256.554 412.32 259.114 413.28C261.738 414.24 263.914 415.584 265.642 417.312C267.434 419.04 268.778 421.088 269.674 423.456C270.634 425.824 271.114 428.416 271.114 431.232C271.114 433.792 270.73 436.192 269.962 438.432C269.258 440.672 268.234 442.816 266.89 444.864C265.61 446.912 264.042 448.928 262.186 450.912C260.394 452.832 258.378 454.752 256.138 456.672L237.418 472.992H273.802V480ZM287.973 480V472.992H307.173V418.944H306.501L289.605 434.688L284.901 429.6L302.661 412.992H315.237V472.992H332.901V480H287.973Z" fill="black"/>
</svg>
