<svg width="275" height="231" viewBox="0 0 275 231" fill="none" xmlns="http://www.w3.org/2000/svg">
<g clip-path="url(#clip0)">
<path d="M215.48 83.5226C215.135 62.642 213.582 28.7539 211.339 8.04455C210.822 3.9369 207.544 0.513863 203.403 0.171559C178.388 -1.36881 110.242 5.13497 110.242 5.13497C104.893 5.47727 101.27 5.99073 98.3376 9.07146C98.3376 9.07146 57.4499 52.2018 46.4085 66.5785C42.7855 71.1996 44.3382 79.0726 49.8589 80.613C62.453 84.3783 85.2259 90.8821 98.6826 104.232C112.484 117.924 119.73 138.634 125.596 148.903C128.529 154.037 134.912 155.578 139.743 152.326C157.685 140.174 195.467 113.132 211.512 98.5839C216.688 94.134 215.653 88.9994 215.48 83.5226ZM185.461 85.7475C185.461 86.4322 184.944 86.9456 184.254 86.9456H173.212C172.522 86.9456 172.004 86.4322 172.004 85.7475V56.1383C172.004 50.1479 168.899 46.3826 163.378 46.3826C157.513 46.3826 153.717 50.3191 153.717 58.0209V85.7475C153.717 86.4322 153.2 86.9456 152.509 86.9456H141.468C140.778 86.9456 140.26 86.4322 140.26 85.7475V56.1383C140.26 50.1479 137.155 46.3826 131.634 46.3826C125.941 46.3826 121.973 50.3191 121.973 58.0209V85.7475C121.973 86.4322 121.456 86.9456 120.765 86.9456H109.724C109.034 86.9456 108.516 86.4322 108.516 85.7475V35.0866C108.516 34.402 109.034 33.8885 109.724 33.8885H120.765C121.456 33.8885 121.973 34.402 121.973 35.0866V37.6538C121.973 38.6808 123.181 39.1942 123.871 38.5096C126.804 35.6 130.944 33.8885 136.292 33.8885C142.158 33.8885 146.644 36.1135 149.577 40.05C150.094 40.5634 150.957 40.7346 151.302 40.05C154.58 36.1135 159.41 33.8885 165.794 33.8885C177.525 33.8885 185.289 42.2749 185.289 55.1113V85.7475H185.461Z" fill="white"/>
<path d="M214.616 189.808C209.441 189.808 205.645 191.691 203.23 194.943C203.058 195.285 202.712 195.114 202.54 194.943C200.297 191.691 196.847 189.808 192.189 189.808C187.703 189.808 184.253 191.348 182.01 193.916C181.665 194.258 181.147 194.087 181.147 193.573V191.177C181.147 191.006 180.975 190.664 180.63 190.664H171.313C171.141 190.664 170.796 190.835 170.796 191.177V229.515C170.796 229.687 170.968 230.029 171.313 230.029H180.63C180.802 230.029 181.147 229.858 181.147 229.515V207.95C181.147 202.131 184.253 199.05 188.566 199.05C192.879 199.05 195.121 201.789 195.121 206.581V229.515C195.121 229.687 195.294 230.029 195.639 230.029H204.955C205.128 230.029 205.473 229.858 205.473 229.515V207.95C205.473 202.131 208.233 199.05 212.891 199.05C217.204 199.05 219.447 201.789 219.447 206.581V229.515C219.447 229.687 219.62 230.029 219.965 230.029H229.281C229.453 230.029 229.798 229.858 229.798 229.515V205.896C229.453 196.141 223.588 189.808 214.616 189.808Z" fill="white"/>
<path d="M103.686 190.835H94.3697C94.1971 190.835 93.8521 191.006 93.8521 191.348V194.258C93.8521 194.6 93.3345 194.772 93.162 194.6C90.4017 191.52 86.2611 189.808 81.0855 189.808C70.5616 189.808 61.9355 198.879 61.9355 210.517C61.9355 222.156 70.5616 231.227 81.0855 231.227C86.4337 231.227 90.4017 229.344 93.162 226.435C93.507 226.092 93.8521 226.263 93.8521 226.777V229.686C93.8521 229.858 94.0246 230.2 94.3697 230.2H103.686C103.858 230.2 104.203 230.029 104.203 229.686V191.348C104.203 191.006 103.858 190.835 103.686 190.835ZM82.9832 221.471C76.7724 221.471 72.1143 217.021 72.1143 210.346C72.1143 203.843 76.7724 199.221 82.9832 199.221C89.3665 199.221 94.0246 203.671 94.0246 210.346C93.8521 217.021 89.194 221.471 82.9832 221.471Z" fill="white"/>
<path d="M43.6481 189.808C38.6449 189.808 34.8494 191.691 32.2616 194.943C32.0891 195.285 31.5715 195.285 31.399 194.943C29.1562 191.691 25.7058 189.979 21.0477 189.979C16.5621 189.979 13.2842 191.52 10.8689 194.087C10.5238 194.429 10.0063 194.258 10.0063 193.745V191.52C10.0063 191.177 9.83375 191.006 9.48871 191.006H0.517566C0.172522 191.006 0 191.177 0 191.52V229.686C0 230.029 0.172522 230.2 0.517566 230.2H9.66123C10.0063 230.2 10.1788 230.029 10.1788 229.686V208.121C10.1788 202.302 13.2842 199.221 17.5972 199.221C21.9103 199.221 24.1531 201.96 24.1531 206.752V229.686C24.1531 230.029 24.3256 230.2 24.6706 230.2H33.8143C34.1593 230.2 34.3319 230.029 34.3319 229.686V208.121C34.3319 202.302 37.0922 199.221 41.7503 199.221C46.0634 199.221 48.3061 201.96 48.3061 206.752V229.686C48.3061 230.029 48.4787 230.2 48.8237 230.2H57.9674C58.3124 230.2 58.4849 230.029 58.4849 229.686V206.068C58.6575 196.141 52.7917 189.808 43.6481 189.808Z" fill="white"/>
<path d="M274.483 190.835H265.167C264.995 190.835 264.65 191.006 264.65 191.348V194.258C264.65 194.6 264.132 194.943 263.787 194.6C261.027 191.691 256.886 189.808 251.71 189.808C241.187 189.808 232.561 198.879 232.561 210.517C232.561 222.156 241.187 231.227 251.71 231.227C256.886 231.227 261.027 229.344 263.787 226.435C264.132 226.092 264.65 226.263 264.65 226.777V229.686C264.65 229.858 264.822 230.2 265.167 230.2H274.483C274.656 230.2 275.001 230.029 275.001 229.686V191.348C275.001 191.006 274.828 190.835 274.483 190.835ZM253.781 221.471C247.57 221.471 242.912 217.021 242.912 210.346C242.912 203.843 247.57 199.221 253.781 199.221C260.164 199.221 264.822 203.671 264.822 210.346C264.822 217.021 260.164 221.471 253.781 221.471Z" fill="white"/>
<path d="M164.758 190.835H155.097C154.924 190.835 154.752 191.006 154.752 191.177V229.858C154.752 230.029 154.924 230.2 155.097 230.2H164.758C164.931 230.2 165.103 230.029 165.103 229.858V191.177C165.103 191.006 164.931 190.835 164.758 190.835Z" fill="white"/>
<path d="M137.501 212.571L131.118 220.958C130.945 221.129 130.945 221.3 131.118 221.471L136.983 229.686C137.156 230.029 137.501 230.2 137.846 230.2H148.887C149.75 230.2 150.268 229.344 149.75 228.659L138.364 212.571C138.191 212.229 137.673 212.229 137.501 212.571Z" fill="white"/>
<path d="M149.403 192.204C149.749 191.691 149.403 191.006 148.713 191.006H136.982C136.982 191.006 136.982 191.006 136.809 191.006C136.809 191.006 136.809 191.006 136.982 191.006C136.809 191.006 136.637 191.006 136.637 191.177L131.116 199.051C131.116 199.222 131.116 199.222 131.116 199.393L137.672 208.122C137.845 208.293 138.017 208.293 138.19 208.122L149.403 192.204Z" fill="white"/>
<path d="M127.84 200.077L121.457 191.177L121.284 191.006H121.112H108.69C108.518 191.006 108.345 191.178 108.172 191.349V191.52C108.172 191.691 108.172 191.691 108.345 191.862L121.284 210.004C121.284 210.175 121.457 210.175 121.457 210.347C121.457 210.518 121.457 210.518 121.284 210.689L107.827 229.516C107.655 229.858 107.827 230.371 108.172 230.371H120.594H120.767L120.939 230.2L127.668 220.616L135.086 210.86C135.258 210.689 135.258 210.347 135.086 210.175L127.84 200.077Z" fill="white"/>
</g>
<defs>
<clipPath id="clip0">
<rect width="275" height="231" fill="white"/>
</clipPath>
</defs>
</svg>
