<svg width="83" height="292" viewBox="0 0 83 292" fill="none" xmlns="http://www.w3.org/2000/svg">
<path d="M71.0813 292L42.218 240.979L41.0692 240.979L12.2059 292L5.0042e-06 292L35.7561 230.199L47.244 230.199L83 292L71.0813 292Z" fill="white"/>
<path d="M71.0813 176.9L42.218 125.879L41.0692 125.879L12.2059 176.9L-2.52907e-06 176.9L35.7561 115.1L47.244 115.1L83 176.9L71.0813 176.9Z" fill="white"/>
<path d="M71.0813 61.8006L42.218 10.7792L41.0692 10.7792L12.2059 61.8006L-1.00623e-05 61.8006L35.7561 -1.56295e-06L47.2439 -2.0651e-06L83 61.8006L71.0813 61.8006Z" fill="white"/>
</svg>
