<svg width="447" height="313" fill="none" xmlns="http://www.w3.org/2000/svg"><path d="M13.827 307.798v-31.647h86.416V32.081h-3.024l-76.047 71.096L0 80.201 79.935 5.202h56.603v270.949h79.504v31.647H13.827zm325.096-174.274c21.028 0 36.727-4.625 47.097-13.873 10.658-9.537 15.987-21.676 15.987-36.415V80.2c0-16.185-5.185-28.323-15.555-36.416-10.082-8.092-23.333-12.138-39.752-12.138-16.131 0-29.238 3.613-39.32 10.838-9.793 6.936-17.859 16.184-24.196 27.745L255.962 49.42c3.745-6.07 8.354-11.994 13.827-17.774 5.473-6.07 11.81-11.416 19.012-16.04 7.489-4.624 15.987-8.382 25.493-11.272C324.088 1.445 335.178 0 347.564 0c12.963 0 25.061 1.734 36.295 5.202 11.234 3.18 21.028 8.093 29.382 14.74 8.354 6.358 14.835 14.306 19.444 23.843 4.897 9.538 7.345 20.376 7.345 32.514 0 9.827-1.584 18.641-4.753 26.445-2.88 7.803-7.057 14.595-12.53 20.375-5.185 5.78-11.379 10.694-18.58 14.74a92.465 92.465 0 01-22.9 9.104v1.734c8.353 1.734 16.419 4.624 24.196 8.67 7.778 3.757 14.691 8.815 20.74 15.173 6.05 6.069 10.802 13.584 14.259 22.543 3.745 8.67 5.617 18.641 5.617 29.913 0 13.005-2.592 24.999-7.777 35.982-4.897 10.693-11.955 19.942-21.172 27.745-8.93 7.514-19.876 13.439-32.839 17.774-12.674 4.335-26.789 6.503-42.344 6.503-13.25 0-25.061-1.445-35.431-4.335-10.082-2.89-19.155-6.792-27.221-11.705-7.777-4.913-14.691-10.405-20.74-16.474-5.761-6.069-10.946-12.427-15.555-19.075l27.221-20.808c4.033 6.069 8.21 11.56 12.531 16.473a79.041 79.041 0 0014.691 13.006c5.761 3.468 12.242 6.214 19.443 8.237 7.202 2.023 15.555 3.034 25.061 3.034 21.316 0 37.591-4.913 48.826-14.739 11.522-9.827 17.283-23.844 17.283-42.052v-3.468c0-17.919-5.617-31.791-16.851-41.618-10.946-9.826-27.51-14.739-49.69-14.739h-35.863v-31.213h33.271z" fill="#fff"/></svg>