<svg width="445" height="307" fill="none" xmlns="http://www.w3.org/2000/svg"><path d="M204.195 307H2.595v-37.186l100.8-90.803c14.709-13.26 26.823-26.808 36.34-40.645 9.518-14.125 14.276-28.97 14.276-44.536v-5.19c0-18.16-4.758-32.14-14.276-41.941-9.517-10.09-23.65-15.134-42.396-15.134-18.459 0-32.735 4.756-42.83 14.269-9.805 9.224-17.16 21.62-22.063 37.186L0 70.913c2.884-8.936 6.778-17.584 11.68-25.944 5.192-8.648 11.681-16.287 19.468-22.917 7.787-6.63 17.16-11.963 28.12-15.998C70.516 2.018 83.495 0 98.204 0c14.997 0 28.264 2.162 39.801 6.486 11.824 4.324 21.63 10.377 29.418 18.16 8.075 7.784 14.132 17.008 18.169 27.674 4.327 10.665 6.49 22.34 6.49 35.024 0 11.53-1.731 22.34-5.192 32.429-3.172 10.089-7.787 19.746-13.843 28.971-5.769 9.224-12.835 18.304-21.199 27.241-8.075 8.647-17.16 17.295-27.255 25.943l-84.36 73.507h163.962V307zm85.928 0l59.278-135.339 58.827-135.34H275.847v56.211h-32.446V5.19H445v31.997L329.059 307h-38.936z" fill="#fff"/></svg>