<svg width="43" height="43" fill="none" xmlns="http://www.w3.org/2000/svg"><path d="M30.174 13.821H12.825l8.675 7.435 8.674-7.435z" fill="#fff"/><path d="M21.5 23.036a.767.767 0 01-.5-.186l-9.482-8.127v14.455h19.964V14.723L22 22.85a.766.766 0 01-.5.186z" fill="#fff"/><path d="M21.5 0C9.626 0 0 9.626 0 21.5S9.626 43 21.5 43 43 33.374 43 21.5C42.986 9.632 33.368.013 21.5 0zm11.518 29.946a.768.768 0 01-.768.768h-21.5a.768.768 0 01-.768-.768V13.054c0-.425.344-.768.768-.768h21.5c.424 0 .768.344.768.768v16.892z" fill="#fff"/></svg>