<svg width="43" height="43" fill="none" xmlns="http://www.w3.org/2000/svg"><path d="M21.5 0C9.626 0 0 9.626 0 21.5S9.626 43 21.5 43 43 33.374 43 21.5 33.374 0 21.5 0zm10.906 23.825c1.002.98 2.062 1.9 2.962 2.98.398.478.774.972 1.06 1.527.408.793.04 1.662-.67 1.709l-4.404-.001c-1.138.094-2.043-.365-2.806-1.143-.61-.62-1.175-1.281-1.762-1.922a4.12 4.12 0 00-.793-.706c-.6-.39-1.122-.271-1.466.356-.35.639-.43 1.346-.464 2.056-.048 1.039-.361 1.31-1.403 1.36-2.227.103-4.34-.234-6.304-1.357-1.732-.99-3.073-2.388-4.241-3.97-2.275-3.085-4.018-6.47-5.583-9.953-.353-.784-.095-1.204.77-1.22a122.54 122.54 0 014.313-.001c.585.009.972.344 1.197.896.777 1.911 1.73 3.73 2.923 5.416.318.45.642.897 1.105 1.214.51.35.899.235 1.14-.335.154-.362.22-.75.253-1.137.115-1.329.128-2.658-.07-3.981-.123-.829-.589-1.363-1.414-1.52-.42-.08-.36-.235-.155-.476.355-.415.688-.672 1.352-.672h4.977c.784.153.96.505 1.067 1.295l.004 5.53c-.009.306.154 1.213.703 1.413.44.145.73-.208.993-.486 1.194-1.267 2.044-2.761 2.805-4.309.336-.682.626-1.388.908-2.095.21-.523.535-.78 1.125-.772l4.792.006c.142 0 .285.001.425.025.807.139 1.029.486.779 1.274-.393 1.238-1.157 2.269-1.904 3.303-.801 1.106-1.655 2.174-2.448 3.286-.728 1.016-.67 1.528.234 2.41z" fill="#fff"/></svg>