<svg width="43" height="44" fill="none" xmlns="http://www.w3.org/2000/svg"><path d="M21.5 0C9.628 0 0 9.852 0 22s9.628 22 21.5 22S43 34.148 43 22 33.372 0 21.5 0zm-6.248 33.258h-5.236v-16.12h5.236v16.12zm-2.618-18.321H12.6c-1.757 0-2.893-1.238-2.893-2.785 0-1.581 1.17-2.785 2.962-2.785 1.791 0 2.894 1.204 2.928 2.785 0 1.547-1.137 2.785-2.963 2.785zm21.5 18.32h-5.236v-8.623c0-2.167-.759-3.645-2.653-3.645-1.447 0-2.308.997-2.687 1.96-.138.344-.172.825-.172 1.307v9.002H18.15s.069-14.608 0-16.12h5.236v2.282c.696-1.098 1.94-2.66 4.719-2.66 3.445 0 6.028 2.304 6.028 7.255v9.243z" fill="#fff"/></svg>