<svg width="43" height="44" fill="none" xmlns="http://www.w3.org/2000/svg"><path d="M21.5 0C9.628 0 0 9.852 0 22s9.628 22 21.5 22S43 34.148 43 22 33.372 0 21.5 0zm10.786 16.833v2.979a9.937 9.937 0 01-3.964-.818c-.81-.35-1.563-.8-2.252-1.344l.02 9.17a7.77 7.77 0 01-2.251 5.465 7.6 7.6 0 01-5.437 2.277 7.576 7.576 0 01-4.712-1.63 7.784 7.784 0 01-2.961-6.635 7.789 7.789 0 011.897-4.642c1.483-1.7 3.558-2.644 5.776-2.644.39 0 .777.03 1.156.088v4.165a3.57 3.57 0 00-1.144-.188c-2.027 0-3.666 1.692-3.636 3.767a3.729 3.729 0 001.774 3.13 3.554 3.554 0 003.006.337c1.449-.49 2.493-1.881 2.493-3.523l.005-6.14V9.437h4.01c.003.407.043.804.118 1.188a6.364 6.364 0 002.352 3.825 6.095 6.095 0 003.739 1.279s.012 0 .011-.001v1.105z" fill="#fff"/></svg>