<svg width="45" height="43" fill="none" xmlns="http://www.w3.org/2000/svg"><path d="M26.807 21.5c0 2.273-1.928 4.115-4.307 4.115-2.378 0-4.307-1.842-4.307-4.115s1.928-4.115 4.307-4.115c2.378 0 4.307 1.842 4.307 4.115z" fill="#fff"/><path d="M32.572 14.219a3.813 3.813 0 00-.966-1.42 4.023 4.023 0 00-1.486-.923c-.455-.169-1.139-.37-2.399-.425-1.362-.06-1.77-.072-5.22-.072-3.45 0-3.86.012-5.222.072-1.26.055-1.943.256-2.398.425a4.02 4.02 0 00-1.486.923c-.429.399-.76.884-.967 1.42-.177.435-.387 1.089-.444 2.293-.062 1.301-.076 1.692-.076 4.988 0 3.297.014 3.687.076 4.99.057 1.203.268 1.856.444 2.291a3.82 3.82 0 00.967 1.42c.417.41.924.726 1.485.923.456.17 1.14.37 2.4.426 1.362.059 1.77.071 5.22.071 3.45 0 3.859-.012 5.221-.071 1.26-.055 1.944-.256 2.4-.426 1.126-.415 2.017-1.266 2.451-2.343.177-.435.387-1.088.445-2.292.062-1.302.075-1.692.075-4.989 0-3.296-.013-3.687-.075-4.988-.057-1.204-.268-1.858-.445-2.293zM22.5 27.839c-3.664 0-6.634-2.838-6.634-6.339 0-3.501 2.97-6.34 6.634-6.34s6.635 2.84 6.635 6.34-2.97 6.34-6.635 6.34zm6.897-11.448c-.856 0-1.55-.663-1.55-1.481 0-.818.694-1.482 1.55-1.482.856 0 1.55.664 1.55 1.482s-.694 1.481-1.55 1.481z" fill="#fff"/><path d="M22.5 0C10.075 0 0 9.628 0 21.5S10.075 43 22.5 43 45 33.372 45 21.5 34.925 0 22.5 0zm12.842 26.59c-.063 1.314-.281 2.211-.6 2.997-.672 1.658-2.044 2.97-3.78 3.61-.82.305-1.76.514-3.135.574-1.378.06-1.818.075-5.327.075s-3.949-.015-5.327-.075c-1.375-.06-2.314-.269-3.136-.574a6.365 6.365 0 01-2.288-1.424 6.033 6.033 0 01-1.49-2.186c-.32-.785-.538-1.683-.6-2.997-.064-1.317-.079-1.737-.079-5.09 0-3.353.015-3.773.078-5.09.063-1.314.28-2.211.6-2.997a6.03 6.03 0 011.49-2.186 6.365 6.365 0 012.29-1.424c.821-.306 1.76-.514 3.135-.574 1.378-.06 1.818-.075 5.327-.075s3.949.015 5.327.075c1.375.06 2.314.268 3.136.573.862.31 1.643.796 2.288 1.425a6.03 6.03 0 011.49 2.186c.32.786.538 1.683.601 2.997.063 1.317.078 1.737.078 5.09 0 3.353-.015 3.773-.078 5.09z" fill="#fff"/></svg>