<svg width="43" height="44" fill="none" xmlns="http://www.w3.org/2000/svg"><path d="M18.822 26.122L25.816 22l-6.994-4.122v8.244z" fill="#fff"/><path d="M21.5 0C9.628 0 0 9.852 0 22s9.628 22 21.5 22S43 34.148 43 22 33.372 0 21.5 0zm13.434 22.023s0 4.461-.553 6.613a3.406 3.406 0 01-2.368 2.423c-2.103.566-10.513.566-10.513.566s-8.388 0-10.513-.589a3.407 3.407 0 01-2.368-2.423C8.065 26.484 8.065 22 8.065 22s0-4.461.554-6.613c.31-1.177 1.24-2.129 2.368-2.446 2.103-.566 10.513-.566 10.513-.566s8.41 0 10.513.589a3.407 3.407 0 012.368 2.423c.575 2.152.553 6.636.553 6.636z" fill="#fff"/></svg>