<svg width="618" height="482" fill="none" xmlns="http://www.w3.org/2000/svg"><path d="M.16 46.56v-7.68l41.28-23.904v7.968L7.36 42.24v.768l34.08 19.296v8.16L.16 46.56zm294.533 102.288v-8.064h27.84v8.064h-27.84zm281.092 117.648l34.08-19.296v-.768l-34.08-19.296v-8.16l41.28 23.904v7.68l-41.28 23.904v-7.968zm-453.78 86.352v-8.064h27.84v8.064h-27.84z" fill="#8031A7"/><path d="M138.325 72c-3.776 0-6.56-1.056-8.352-3.168-1.728-2.112-2.592-4.832-2.592-8.16v-31.68h-16.512v-6.528h12.288c1.664 0 2.816-.32 3.456-.96.704-.704 1.056-1.888 1.056-3.552V4.992h7.392v17.472h22.56v6.528h-22.56v36.48h22.56V72h-19.296zm56.027 1.152c-3.584 0-6.816-.608-9.696-1.824a21.12 21.12 0 01-7.297-5.184c-1.983-2.304-3.519-5.024-4.607-8.16-1.088-3.2-1.632-6.752-1.632-10.656 0-3.968.544-7.552 1.632-10.752 1.152-3.2 2.72-5.92 4.704-8.16a19.865 19.865 0 017.104-5.28c2.816-1.216 5.92-1.824 9.312-1.824 3.328 0 6.336.608 9.024 1.824 2.752 1.216 5.088 2.912 7.008 5.088 1.92 2.112 3.392 4.64 4.416 7.584 1.024 2.944 1.536 6.176 1.536 9.696v3.648h-36.672v2.304c0 2.176.352 4.192 1.056 6.048.704 1.856 1.696 3.456 2.976 4.8 1.344 1.344 2.944 2.4 4.8 3.168 1.92.704 4.032 1.056 6.336 1.056 3.328 0 6.208-.768 8.64-2.304 2.432-1.536 4.288-3.648 5.568-6.336l5.664 3.84c-1.472 3.328-3.936 6.08-7.392 8.256-3.392 2.112-7.552 3.168-12.48 3.168zm-.48-45.504c-2.112 0-4.064.384-5.856 1.152a14.863 14.863 0 00-4.704 3.168c-1.28 1.344-2.304 2.944-3.072 4.8-.704 1.792-1.056 3.776-1.056 5.952v.672H207.6v-1.056c0-2.176-.352-4.16-1.056-5.952-.64-1.792-1.568-3.328-2.784-4.608-1.152-1.344-2.592-2.368-4.32-3.072-1.664-.704-3.52-1.056-5.568-1.056zm57.754 45.504c-5.184 0-9.664-.864-13.44-2.592-3.712-1.792-6.88-4.16-9.504-7.104l5.184-4.512c2.368 2.496 4.96 4.416 7.776 5.76 2.816 1.344 6.208 2.016 10.176 2.016 3.84 0 6.976-.672 9.408-2.016 2.496-1.408 3.744-3.584 3.744-6.528 0-1.28-.256-2.336-.768-3.168a5.108 5.108 0 00-1.92-2.112 9.817 9.817 0 00-2.784-1.152 24.368 24.368 0 00-3.264-.768l-7.776-1.152a84.903 84.903 0 01-5.664-1.056c-1.984-.448-3.808-1.152-5.472-2.112-1.664-1.024-3.072-2.368-4.224-4.032-1.088-1.664-1.632-3.84-1.632-6.528 0-2.496.48-4.64 1.44-6.432 1.024-1.856 2.432-3.392 4.224-4.608 1.792-1.28 3.904-2.208 6.336-2.784 2.432-.64 5.088-.96 7.968-.96 4.48 0 8.352.704 11.616 2.112 3.328 1.408 6.176 3.36 8.544 5.856l-4.992 4.704c-.576-.704-1.312-1.408-2.208-2.112-.832-.768-1.888-1.44-3.168-2.016-1.216-.64-2.656-1.152-4.32-1.536-1.664-.384-3.584-.576-5.76-.576-3.904 0-6.912.672-9.024 2.016-2.048 1.344-3.072 3.296-3.072 5.856 0 1.28.224 2.368.672 3.264a6.072 6.072 0 002.016 2.016c.832.512 1.76.928 2.784 1.248 1.088.256 2.176.48 3.264.672l7.776 1.152c1.792.256 3.68.608 5.664 1.056a17.87 17.87 0 015.472 2.208c1.664.96 3.04 2.272 4.128 3.936 1.152 1.664 1.728 3.84 1.728 6.528 0 4.928-1.92 8.736-5.76 11.424-3.776 2.688-8.832 4.032-15.168 4.032zM311.013 72c-3.776 0-6.56-1.056-8.352-3.168-1.728-2.112-2.592-4.832-2.592-8.16v-31.68h-16.512v-6.528h12.288c1.664 0 2.816-.32 3.456-.96.704-.704 1.056-1.888 1.056-3.552V4.992h7.392v17.472h22.56v6.528h-22.56v36.48h22.56V72h-19.296zm58.234-60.48c-2.24 0-3.808-.448-4.704-1.344-.896-.96-1.344-2.144-1.344-3.552V5.088c0-1.408.448-2.56 1.344-3.456.896-.96 2.464-1.44 4.704-1.44 2.24 0 3.808.48 4.704 1.44.896.896 1.344 2.048 1.344 3.456v1.536c0 1.408-.448 2.592-1.344 3.552-.896.896-2.464 1.344-4.704 1.344zm-21.696 53.952h17.856v-36.48h-17.856v-6.528h25.536v43.008h16.704V72h-42.24v-6.528zM404.346 72V22.464h7.68v8.064h.384a18.274 18.274 0 011.92-3.456 12.324 12.324 0 012.784-2.976c1.152-.832 2.496-1.504 4.032-2.016s3.328-.768 5.376-.768c5.184 0 9.344 1.664 12.48 4.992 3.136 3.264 4.704 7.904 4.704 13.92V72h-7.68V41.568c0-4.544-.992-7.904-2.976-10.08-1.984-2.24-4.896-3.36-8.736-3.36-1.536 0-3.04.192-4.512.576-1.472.384-2.784.96-3.936 1.728a8.86 8.86 0 00-2.784 2.976c-.704 1.216-1.056 2.624-1.056 4.224V72h-7.68zm102.01 5.664c0 4.992-2.08 8.672-6.24 11.04-4.16 2.432-10.4 3.648-18.72 3.648-8 0-13.76-1.056-17.28-3.168-3.456-2.112-5.184-5.152-5.184-9.12 0-2.688.704-4.768 2.112-6.24 1.408-1.472 3.392-2.56 5.952-3.264v-1.152c-1.408-.704-2.496-1.6-3.264-2.688-.768-1.088-1.152-2.464-1.152-4.128 0-2.56.832-4.48 2.496-5.76 1.728-1.28 3.872-2.24 6.432-2.88v-.384c-3.072-1.344-5.472-3.328-7.2-5.952-1.664-2.624-2.496-5.696-2.496-9.216 0-2.496.448-4.8 1.344-6.912.896-2.112 2.176-3.904 3.84-5.376 1.728-1.536 3.776-2.72 6.144-3.552 2.368-.832 4.992-1.248 7.872-1.248 3.712 0 6.976.672 9.792 2.016v-.864c0-1.92.448-3.52 1.344-4.8.896-1.28 2.432-1.92 4.608-1.92h9.12v6.72H494.74v3.36a15.679 15.679 0 014.128 5.472c.96 2.112 1.44 4.48 1.44 7.104 0 2.496-.48 4.8-1.44 6.912a15.704 15.704 0 01-3.84 5.472c-1.664 1.472-3.712 2.624-6.144 3.456-2.368.832-4.992 1.248-7.872 1.248a28.31 28.31 0 01-4.704-.384c-.768.128-1.568.352-2.4.672-.832.256-1.6.64-2.304 1.152a6.029 6.029 0 00-1.728 1.632c-.448.64-.672 1.376-.672 2.208 0 1.472.736 2.464 2.208 2.976 1.472.448 3.392.672 5.76.672h10.944c6.4 0 11.04 1.216 13.92 3.648 2.88 2.368 4.32 5.568 4.32 9.6zm-7.2.384c0-1.984-.8-3.584-2.4-4.8-1.6-1.152-4.384-1.728-8.352-1.728H471.22c-3.328 1.344-4.992 3.584-4.992 6.72 0 2.176.864 4.032 2.592 5.568 1.728 1.6 4.608 2.4 8.64 2.4h7.488c4.48 0 7.968-.704 10.464-2.112 2.496-1.344 3.744-3.36 3.744-6.048zm-18.144-28.512c3.84 0 6.656-.896 8.448-2.688 1.856-1.792 2.784-4.16 2.784-7.104V36.96c0-2.944-.928-5.28-2.784-7.008-1.792-1.792-4.608-2.688-8.448-2.688-3.84 0-6.656.896-8.448 2.688-1.792 1.728-2.688 4.064-2.688 7.008v2.784c0 2.944.896 5.312 2.688 7.104 1.792 1.792 4.608 2.688 8.448 2.688zM137.653 175.152c-3.584 0-6.784-.608-9.6-1.824-2.752-1.28-5.088-3.04-7.008-5.28s-3.392-4.96-4.416-8.16c-.96-3.2-1.44-6.752-1.44-10.656 0-3.904.512-7.456 1.536-10.656s2.496-5.92 4.416-8.16a18.994 18.994 0 017.008-5.28c2.752-1.216 5.888-1.824 9.408-1.824 4.8 0 8.704 1.056 11.712 3.168 3.008 2.112 5.216 4.864 6.624 8.256L149.749 138c-.896-2.56-2.4-4.544-4.512-5.952-2.048-1.408-4.608-2.112-7.68-2.112-2.24 0-4.256.384-6.048 1.152a11.948 11.948 0 00-4.416 3.072c-1.216 1.344-2.144 2.944-2.784 4.8-.576 1.856-.864 3.872-.864 6.048v8.448c0 2.176.288 4.192.864 6.048.64 1.856 1.568 3.456 2.784 4.8 1.216 1.344 2.72 2.4 4.512 3.168 1.792.704 3.84 1.056 6.144 1.056 3.328 0 6.08-.768 8.256-2.304 2.176-1.536 3.904-3.648 5.184-6.336l5.472 3.744c-1.472 3.328-3.776 6.08-6.912 8.256-3.072 2.176-7.104 3.264-12.096 3.264zm55.835 0c-3.456 0-6.592-.608-9.408-1.824a20.382 20.382 0 01-7.104-5.184c-1.92-2.304-3.392-5.024-4.416-8.16-1.024-3.2-1.537-6.784-1.537-10.752 0-3.904.513-7.456 1.537-10.656s2.496-5.92 4.416-8.16a19.865 19.865 0 017.104-5.28c2.816-1.216 5.952-1.824 9.408-1.824 3.456 0 6.56.608 9.312 1.824 2.816 1.216 5.184 2.976 7.104 5.28 1.984 2.24 3.488 4.96 4.512 8.16 1.024 3.2 1.536 6.752 1.536 10.656 0 3.968-.512 7.552-1.536 10.752-1.024 3.136-2.528 5.856-4.512 8.16-1.92 2.24-4.288 3.968-7.104 5.184-2.752 1.216-5.856 1.824-9.312 1.824zm0-6.624c4.288 0 7.744-1.28 10.368-3.84 2.624-2.56 3.936-6.528 3.936-11.904v-7.104c0-5.376-1.312-9.344-3.936-11.904-2.624-2.56-6.08-3.84-10.368-3.84s-7.744 1.28-10.368 3.84c-2.624 2.56-3.936 6.528-3.936 11.904v7.104c0 5.376 1.312 9.344 3.936 11.904 2.624 2.56 6.08 3.84 10.368 3.84zm38.17 5.472v-49.536h7.68v8.064h.384a18.274 18.274 0 011.92-3.456 12.324 12.324 0 012.784-2.976c1.152-.832 2.496-1.504 4.032-2.016s3.328-.768 5.376-.768c5.184 0 9.344 1.664 12.48 4.992 3.136 3.264 4.704 7.904 4.704 13.92V174h-7.68v-30.432c0-4.544-.992-7.904-2.976-10.08-1.984-2.24-4.896-3.36-8.736-3.36-1.536 0-3.04.192-4.512.576-1.472.384-2.784.96-3.936 1.728a8.86 8.86 0 00-2.784 2.976c-.704 1.216-1.056 2.624-1.056 4.224V174h-7.68zm-93.333 102c-3.776 0-6.56-1.056-8.352-3.168-1.728-2.112-2.592-4.832-2.592-8.16v-31.68h-16.512v-6.528h12.288c1.664 0 2.816-.32 3.456-.96.704-.704 1.056-1.888 1.056-3.552v-12.96h7.392v17.472h22.56v6.528h-22.56v36.48h22.56V276h-19.296zm56.027 1.152c-3.584 0-6.816-.608-9.696-1.824a21.12 21.12 0 01-7.297-5.184c-1.983-2.304-3.519-5.024-4.607-8.16-1.088-3.2-1.632-6.752-1.632-10.656 0-3.968.544-7.552 1.632-10.752 1.152-3.2 2.72-5.92 4.704-8.16a19.865 19.865 0 017.104-5.28c2.816-1.216 5.92-1.824 9.312-1.824 3.328 0 6.336.608 9.024 1.824 2.752 1.216 5.088 2.912 7.008 5.088 1.92 2.112 3.392 4.64 4.416 7.584 1.024 2.944 1.536 6.176 1.536 9.696v3.648h-36.672v2.304c0 2.176.352 4.192 1.056 6.048.704 1.856 1.696 3.456 2.976 4.8 1.344 1.344 2.944 2.4 4.8 3.168 1.92.704 4.032 1.056 6.336 1.056 3.328 0 6.208-.768 8.64-2.304 2.432-1.536 4.288-3.648 5.568-6.336l5.664 3.84c-1.472 3.328-3.936 6.08-7.392 8.256-3.392 2.112-7.552 3.168-12.48 3.168zm-.48-45.504c-2.112 0-4.064.384-5.856 1.152a14.863 14.863 0 00-4.704 3.168c-1.28 1.344-2.304 2.944-3.072 4.8-.704 1.792-1.056 3.776-1.056 5.952v.672H207.6v-1.056c0-2.176-.352-4.16-1.056-5.952-.64-1.792-1.568-3.328-2.784-4.608-1.152-1.344-2.592-2.368-4.32-3.072-1.664-.704-3.52-1.056-5.568-1.056zm57.754 45.504c-5.184 0-9.664-.864-13.44-2.592-3.712-1.792-6.88-4.16-9.504-7.104l5.184-4.512c2.368 2.496 4.96 4.416 7.776 5.76 2.816 1.344 6.208 2.016 10.176 2.016 3.84 0 6.976-.672 9.408-2.016 2.496-1.408 3.744-3.584 3.744-6.528 0-1.28-.256-2.336-.768-3.168a5.108 5.108 0 00-1.92-2.112 9.817 9.817 0 00-2.784-1.152 24.368 24.368 0 00-3.264-.768l-7.776-1.152a84.903 84.903 0 01-5.664-1.056c-1.984-.448-3.808-1.152-5.472-2.112-1.664-1.024-3.072-2.368-4.224-4.032-1.088-1.664-1.632-3.84-1.632-6.528 0-2.496.48-4.64 1.44-6.432 1.024-1.856 2.432-3.392 4.224-4.608 1.792-1.28 3.904-2.208 6.336-2.784 2.432-.64 5.088-.96 7.968-.96 4.48 0 8.352.704 11.616 2.112 3.328 1.408 6.176 3.36 8.544 5.856l-4.992 4.704c-.576-.704-1.312-1.408-2.208-2.112-.832-.768-1.888-1.44-3.168-2.016-1.216-.64-2.656-1.152-4.32-1.536-1.664-.384-3.584-.576-5.76-.576-3.904 0-6.912.672-9.024 2.016-2.048 1.344-3.072 3.296-3.072 5.856 0 1.28.224 2.368.672 3.264a6.072 6.072 0 002.016 2.016c.832.512 1.76.928 2.784 1.248 1.088.256 2.176.48 3.264.672l7.776 1.152c1.792.256 3.68.608 5.664 1.056a17.87 17.87 0 015.472 2.208c1.664.96 3.04 2.272 4.128 3.936 1.152 1.664 1.728 3.84 1.728 6.528 0 4.928-1.92 8.736-5.76 11.424-3.776 2.688-8.832 4.032-15.168 4.032zM311.013 276c-3.776 0-6.56-1.056-8.352-3.168-1.728-2.112-2.592-4.832-2.592-8.16v-31.68h-16.512v-6.528h12.288c1.664 0 2.816-.32 3.456-.96.704-.704 1.056-1.888 1.056-3.552v-12.96h7.392v17.472h22.56v6.528h-22.56v36.48h22.56V276h-19.296zm58.234-60.48c-2.24 0-3.808-.448-4.704-1.344-.896-.96-1.344-2.144-1.344-3.552v-1.536c0-1.408.448-2.56 1.344-3.456.896-.96 2.464-1.44 4.704-1.44 2.24 0 3.808.48 4.704 1.44.896.896 1.344 2.048 1.344 3.456v1.536c0 1.408-.448 2.592-1.344 3.552-.896.896-2.464 1.344-4.704 1.344zm-21.696 53.952h17.856v-36.48h-17.856v-6.528h25.536v43.008h16.704V276h-42.24v-6.528zM404.346 276v-49.536h7.68v8.064h.384a18.274 18.274 0 011.92-3.456 12.324 12.324 0 012.784-2.976c1.152-.832 2.496-1.504 4.032-2.016s3.328-.768 5.376-.768c5.184 0 9.344 1.664 12.48 4.992 3.136 3.264 4.704 7.904 4.704 13.92V276h-7.68v-30.432c0-4.544-.992-7.904-2.976-10.08-1.984-2.24-4.896-3.36-8.736-3.36-1.536 0-3.04.192-4.512.576-1.472.384-2.784.96-3.936 1.728a8.86 8.86 0 00-2.784 2.976c-.704 1.216-1.056 2.624-1.056 4.224V276h-7.68zm102.01 5.664c0 4.992-2.08 8.672-6.24 11.04-4.16 2.432-10.4 3.648-18.72 3.648-8 0-13.76-1.056-17.28-3.168-3.456-2.112-5.184-5.152-5.184-9.12 0-2.688.704-4.768 2.112-6.24 1.408-1.472 3.392-2.56 5.952-3.264v-1.152c-1.408-.704-2.496-1.6-3.264-2.688-.768-1.088-1.152-2.464-1.152-4.128 0-2.56.832-4.48 2.496-5.76 1.728-1.28 3.872-2.24 6.432-2.88v-.384c-3.072-1.344-5.472-3.328-7.2-5.952-1.664-2.624-2.496-5.696-2.496-9.216 0-2.496.448-4.8 1.344-6.912.896-2.112 2.176-3.904 3.84-5.376 1.728-1.536 3.776-2.72 6.144-3.552 2.368-.832 4.992-1.248 7.872-1.248 3.712 0 6.976.672 9.792 2.016v-.864c0-1.92.448-3.52 1.344-4.8.896-1.28 2.432-1.92 4.608-1.92h9.12v6.72H494.74v3.36a15.679 15.679 0 014.128 5.472c.96 2.112 1.44 4.48 1.44 7.104 0 2.496-.48 4.8-1.44 6.912a15.704 15.704 0 01-3.84 5.472c-1.664 1.472-3.712 2.624-6.144 3.456-2.368.832-4.992 1.248-7.872 1.248a28.31 28.31 0 01-4.704-.384c-.768.128-1.568.352-2.4.672-.832.256-1.6.64-2.304 1.152a6.029 6.029 0 00-1.728 1.632c-.448.64-.672 1.376-.672 2.208 0 1.472.736 2.464 2.208 2.976 1.472.448 3.392.672 5.76.672h10.944c6.4 0 11.04 1.216 13.92 3.648 2.88 2.368 4.32 5.568 4.32 9.6zm-7.2.384c0-1.984-.8-3.584-2.4-4.8-1.6-1.152-4.384-1.728-8.352-1.728H471.22c-3.328 1.344-4.992 3.584-4.992 6.72 0 2.176.864 4.032 2.592 5.568 1.728 1.6 4.608 2.4 8.64 2.4h7.488c4.48 0 7.968-.704 10.464-2.112 2.496-1.344 3.744-3.36 3.744-6.048zm-18.144-28.512c3.84 0 6.656-.896 8.448-2.688 1.856-1.792 2.784-4.16 2.784-7.104v-2.784c0-2.944-.928-5.28-2.784-7.008-1.792-1.792-4.608-2.688-8.448-2.688-3.84 0-6.656.896-8.448 2.688-1.792 1.728-2.688 4.064-2.688 7.008v2.784c0 2.944.896 5.312 2.688 7.104 1.792 1.792 4.608 2.688 8.448 2.688zM158.677 480h-44.736v-8.256l22.368-20.16c3.264-2.944 5.952-5.952 8.064-9.024 2.112-3.136 3.168-6.432 3.168-9.888v-1.152c0-4.032-1.056-7.136-3.168-9.312-2.112-2.24-5.248-3.36-9.408-3.36-4.096 0-7.264 1.056-9.504 3.168-2.176 2.048-3.808 4.8-4.896 8.256l-7.2-2.688a28.928 28.928 0 012.592-5.76 20.506 20.506 0 014.32-5.088c1.728-1.472 3.808-2.656 6.24-3.552 2.496-.896 5.376-1.344 8.64-1.344 3.328 0 6.272.48 8.832 1.44 2.624.96 4.8 2.304 6.528 4.032a16.568 16.568 0 014.032 6.144c.96 2.368 1.44 4.96 1.44 7.776 0 2.56-.384 4.96-1.152 7.2a25.771 25.771 0 01-3.072 6.432c-1.28 2.048-2.848 4.064-4.704 6.048-1.792 1.92-3.808 3.84-6.048 5.76l-18.72 16.32h36.384V480zm34.811 1.152c-4.096 0-7.616-.768-10.56-2.304-2.944-1.6-5.376-3.872-7.296-6.816s-3.328-6.56-4.224-10.848c-.896-4.288-1.344-9.184-1.344-14.688 0-5.44.448-10.304 1.344-14.592.896-4.352 2.304-8 4.224-10.944 1.92-2.944 4.352-5.184 7.296-6.72 2.944-1.6 6.464-2.4 10.56-2.4s7.616.8 10.56 2.4c2.944 1.536 5.376 3.776 7.296 6.72s3.328 6.592 4.224 10.944c.896 4.288 1.344 9.152 1.344 14.592 0 5.504-.448 10.4-1.344 14.688-.896 4.288-2.304 7.904-4.224 10.848-1.92 2.944-4.352 5.216-7.296 6.816-2.944 1.536-6.464 2.304-10.56 2.304zm0-7.008c2.688 0 4.992-.512 6.912-1.536 1.92-1.088 3.456-2.592 4.608-4.512 1.216-1.92 2.112-4.224 2.688-6.912.576-2.752.864-5.824.864-9.216v-10.944c0-3.328-.288-6.368-.864-9.12-.576-2.752-1.472-5.088-2.688-7.008-1.152-1.92-2.688-3.392-4.608-4.416-1.92-1.088-4.224-1.632-6.912-1.632-2.688 0-4.992.544-6.912 1.632-1.92 1.024-3.488 2.496-4.704 4.416-1.152 1.92-2.016 4.256-2.592 7.008-.576 2.752-.864 5.792-.864 9.12v10.944c0 3.392.288 6.464.864 9.216.576 2.688 1.44 4.992 2.592 6.912 1.216 1.92 2.784 3.424 4.704 4.512 1.92 1.024 4.224 1.536 6.912 1.536zm0-21.984c-2.24 0-3.808-.448-4.704-1.344-.832-.896-1.248-1.984-1.248-3.264v-2.112c0-1.28.416-2.368 1.248-3.264.896-.896 2.464-1.344 4.704-1.344 2.24 0 3.776.448 4.608 1.344.896.896 1.344 1.984 1.344 3.264v2.112c0 1.28-.448 2.368-1.344 3.264-.832.896-2.368 1.344-4.608 1.344zM273.802 480h-44.736v-8.256l22.368-20.16c3.264-2.944 5.952-5.952 8.064-9.024 2.112-3.136 3.168-6.432 3.168-9.888v-1.152c0-4.032-1.056-7.136-3.168-9.312-2.112-2.24-5.248-3.36-9.408-3.36-4.096 0-7.264 1.056-9.504 3.168-2.176 2.048-3.808 4.8-4.896 8.256l-7.2-2.688a28.928 28.928 0 012.592-5.76 20.506 20.506 0 014.32-5.088c1.728-1.472 3.808-2.656 6.24-3.552 2.496-.896 5.376-1.344 8.64-1.344 3.328 0 6.272.48 8.832 1.44 2.624.96 4.8 2.304 6.528 4.032a16.568 16.568 0 014.032 6.144c.96 2.368 1.44 4.96 1.44 7.776 0 2.56-.384 4.96-1.152 7.2a25.771 25.771 0 01-3.072 6.432c-1.28 2.048-2.848 4.064-4.704 6.048-1.792 1.92-3.808 3.84-6.048 5.76l-18.72 16.32h36.384V480zm14.171 0v-7.008h19.2v-54.048h-.672l-16.896 15.744-4.704-5.088 17.76-16.608h12.576v60h17.664V480h-44.928z" fill="#000"/></svg>