<svg width="275" height="231" fill="none" xmlns="http://www.w3.org/2000/svg"><g clip-path="url(#clip0)" fill="#fff"><path d="M215.48 83.523c-.345-20.881-1.898-54.77-4.141-75.478-.517-4.108-3.795-7.531-7.936-7.873-25.015-1.54-93.161 4.963-93.161 4.963-5.349.342-8.972.856-11.904 3.936 0 0-40.888 43.13-51.93 57.508-3.623 4.62-2.07 12.494 3.45 14.034 12.595 3.765 35.368 10.27 48.825 23.619 13.801 13.692 21.047 34.402 26.913 44.671 2.933 5.134 9.316 6.675 14.147 3.423 17.942-12.152 55.724-39.194 71.769-53.742 5.176-4.45 4.141-9.585 3.968-15.061zm-30.019 2.225c0 .684-.517 1.198-1.207 1.198h-11.042c-.69 0-1.208-.514-1.208-1.198v-29.61c0-5.99-3.105-9.755-8.626-9.755-5.865 0-9.661 3.936-9.661 11.638v27.727c0 .684-.517 1.198-1.208 1.198h-11.041c-.69 0-1.208-.514-1.208-1.198v-29.61c0-5.99-3.105-9.755-8.626-9.755-5.693 0-9.661 3.936-9.661 11.638v27.727c0 .684-.517 1.198-1.208 1.198h-11.041c-.69 0-1.208-.514-1.208-1.198V35.087c0-.685.518-1.199 1.208-1.199h11.041c.691 0 1.208.514 1.208 1.199v2.567c0 1.027 1.208 1.54 1.898.856 2.933-2.91 7.073-4.621 12.421-4.621 5.866 0 10.352 2.224 13.285 6.161.517.513 1.38.685 1.725 0 3.278-3.936 8.108-6.161 14.492-6.161 11.731 0 19.495 8.386 19.495 21.222v30.637h.172zm29.155 104.06c-5.175 0-8.971 1.883-11.386 5.135-.172.342-.518.171-.69 0-2.243-3.252-5.693-5.135-10.351-5.135-4.486 0-7.936 1.54-10.179 4.108-.345.342-.863.171-.863-.343v-2.396c0-.171-.172-.513-.517-.513h-9.317c-.172 0-.517.171-.517.513v38.338c0 .172.172.514.517.514h9.317c.172 0 .517-.171.517-.514V207.95c0-5.819 3.106-8.9 7.419-8.9s6.555 2.739 6.555 7.531v22.934c0 .172.173.514.518.514h9.316c.173 0 .518-.171.518-.514V207.95c0-5.819 2.76-8.9 7.418-8.9 4.313 0 6.556 2.739 6.556 7.531v22.934c0 .172.173.514.518.514h9.316c.172 0 .517-.171.517-.514v-23.619c-.345-9.755-6.21-16.088-15.182-16.088zm-110.93 1.027H94.37c-.173 0-.518.171-.518.513v2.91c0 .342-.517.514-.69.342-2.76-3.08-6.9-4.792-12.077-4.792-10.523 0-19.15 9.071-19.15 20.709 0 11.639 8.627 20.71 19.15 20.71 5.349 0 9.317-1.883 12.077-4.792.345-.343.69-.172.69.342v2.909c0 .172.173.514.518.514h9.316c.172 0 .517-.171.517-.514v-38.338c0-.342-.345-.513-.517-.513zm-20.703 30.636c-6.21 0-10.869-4.45-10.869-11.125 0-6.503 4.658-11.125 10.87-11.125 6.383 0 11.04 4.45 11.04 11.125-.172 6.675-4.83 11.125-11.04 11.125zm-39.335-31.663c-5.003 0-8.799 1.883-11.386 5.135-.173.342-.69.342-.863 0-2.243-3.252-5.693-4.964-10.351-4.964-4.486 0-7.764 1.541-10.18 4.108-.344.342-.862.171-.862-.342v-2.225c0-.343-.172-.514-.517-.514H.518c-.345 0-.518.171-.518.514v38.166c0 .343.173.514.518.514H9.66c.345 0 .518-.171.518-.514v-21.565c0-5.819 3.105-8.9 7.418-8.9 4.313 0 6.556 2.739 6.556 7.531v22.934c0 .343.173.514.518.514h9.143c.345 0 .518-.171.518-.514v-21.565c0-5.819 2.76-8.9 7.418-8.9 4.313 0 6.556 2.739 6.556 7.531v22.934c0 .343.173.514.518.514h9.143c.345 0 .518-.171.518-.514v-23.618c.172-9.927-5.693-16.26-14.837-16.26zm230.835 1.027h-9.316c-.172 0-.517.171-.517.513v2.91c0 .342-.518.685-.863.342-2.76-2.909-6.901-4.792-12.077-4.792-10.523 0-19.149 9.071-19.149 20.709 0 11.639 8.626 20.71 19.149 20.71 5.176 0 9.317-1.883 12.077-4.792.345-.343.863-.172.863.342v2.909c0 .172.172.514.517.514h9.316c.173 0 .518-.171.518-.514v-38.338c0-.342-.173-.513-.518-.513zm-20.702 30.636c-6.211 0-10.869-4.45-10.869-11.125 0-6.503 4.658-11.125 10.869-11.125 6.383 0 11.041 4.45 11.041 11.125s-4.658 11.125-11.041 11.125zm-89.023-30.636h-9.661c-.173 0-.345.171-.345.342v38.681c0 .171.172.342.345.342h9.661c.173 0 .345-.171.345-.342v-38.681c0-.171-.172-.342-.345-.342zm-27.257 21.736l-6.383 8.387c-.173.171-.173.342 0 .513l5.865 8.215a.95.95 0 00.863.514h11.041c.863 0 1.381-.856.863-1.541l-11.386-16.088c-.173-.342-.691-.342-.863 0zm11.902-20.367c.346-.513 0-1.198-.69-1.198h-11.904.173c-.173 0-.345 0-.345.171l-5.521 7.874v.342l6.556 8.729c.173.171.345.171.518 0l11.213-15.918zm-21.563 7.873l-6.383-8.9-.173-.171H108.69c-.172 0-.345.172-.518.343v.171c0 .171 0 .171.173.342l12.939 18.142c0 .171.173.171.173.343 0 .171 0 .171-.173.342l-13.457 18.827c-.172.342 0 .855.345.855h12.595l.172-.171 6.729-9.584 7.418-9.756c.172-.171.172-.513 0-.685l-7.246-10.098z"/></g><defs><clipPath id="clip0"><path fill="#fff" d="M0 0h275v231H0z"/></clipPath></defs></svg>